<?xml version="1.0" encoding="utf-8"?>
<!-- Generator: Adobe Illustrator 27.0.0, SVG Export Plug-In . SVG Version: 6.00 Build 0)  -->
<svg version="1.1" id="Layer_1" xmlns="http://www.w3.org/2000/svg" xmlns:xlink="http://www.w3.org/1999/xlink" x="0px" y="0px"
	 viewBox="0 0 867 673" style="enable-background:new 0 0 867 673;" xml:space="preserve">
<style type="text/css">
	.st0{fill:#F2F2F2;}
	.st1{fill:#E6E6E6;}
	.st2{fill:#3F3D56;}
	.st3{fill:#A0616A;}
	.st4{fill:#F8DC51;}
	.st5{fill:#FFB6B6;}
	.st6{fill:#96CA55;}
	.st7{fill:#FFB8B8;}
	.st8{fill:#2F2E41;}
</style>
<path class="st0" d="M113.1,296.2c-32.3-13.6-58.1-38.9-72.3-70.9c-7.9-18.1-11.8-37.8-14-57.5c-2.2-19.3-2.6-39.6,5.7-57.2
	C47,79.8,83.7,66.7,114.4,81.2c9.1,4.3,17.1,10.8,23.1,19c5.5,7.3,9.3,16.2,9.4,25.3c0.2,19.2-15.2,34.6-22,52.6
	c-7,18.6-4.5,39.1-3.3,58.9s0.4,41.3-11.6,57"/>
<path class="st0" d="M691.9,538.8c34.1-8,63.8-28.7,83.1-57.9c10.8-16.6,17.9-35.3,23.4-54.3c5.4-18.7,9.2-38.7,3.9-57.3
	c-9.2-32.7-43.2-51.8-75.9-42.6c-9.7,2.7-18.7,7.8-25.9,14.8c-6.6,6.3-11.8,14.4-13.5,23.4c-3.4,18.9,9.2,36.6,12.9,55.5
	c3.8,19.5-2.1,39.3-6.6,58.6s-7.3,40.6,1.9,58.2"/>
<path class="st1" d="M432,508c-48.6,0.2-95.8-15.8-134.4-45.3c-37.8-28.9-65.4-69-78.8-114.6l1.9-0.6C247.9,440.8,334.7,506,432,506
	c29.1,0.1,57.9-5.7,84.7-16.9l0.8,1.8C490.4,502.3,461.3,508.1,432,508z"/>
<path class="st1" d="M642,220.2C613.1,128,528.8,66,432,66c-28.7-0.1-57.1,5.5-83.6,16.4l-0.8-1.8c72.1-29.5,154.5-19.1,217,27.4
	c37.4,28,65.1,67.1,79.2,111.6L642,220.2z"/>
<path class="st2" d="M702,578c-91,0-165-74-165-165s74-165,165-165s165,74,165,165S793,578,702,578z M702,250
	c-89.9,0-163,73.1-163,163c0,89.9,73.1,163,163,163s163-73.1,163-163C865,323.1,791.9,250,702,250z"/>
<path class="st2" d="M165,330C74,330,0,256,0,165S74,0,165,0s165,74,165,165S256,330,165,330z M165,2C75.1,2,2,75.1,2,165
	s73.1,163,163,163s163-73.1,163-163S254.9,2,165,2z"/>
<path class="st3" d="M152.2,165.9l-14.6,28.3l14.4,8.2c0,0,9.9-31.8,10.2-33c4.1-1.7,6-6.3,4.3-10.4c-1.7-4.1-6.3-6-10.4-4.3
	c-4.1,1.7-6,6.3-4.3,10.4C151.9,165.4,152,165.7,152.2,165.9L152.2,165.9z"/>
<path class="st4" d="M77.4,169.8c6.5,24.1,29.9,39.4,49.3,57.7c9.5,3.3,19.9-1.7,23.2-11.1c0.2-0.5,0.3-1.1,0.5-1.6l6.5-25.6
	l-16.6-0.4l-6.9,7.5l-22.3-15.9L77.4,169.8z"/>
<path class="st5" d="M677.5,438.6c5.9,0.4,10.4,5.4,10.1,11.2c0,0.6-0.1,1.1-0.2,1.7l32,20.2l-17.7,7.8L674,459.2
	c-4.7-1.4-7.8-5.9-7.7-10.8c0.3-5.7,5.1-10.1,10.8-9.8l0,0C677.3,438.6,677.4,438.6,677.5,438.6z"/>
<path class="st4" d="M708.4,462.6l-7.9,16.4l31.4,20.2c4.5,2.9,10.3,3.3,15.2,1l0,0c6-2.9,9.4-9.4,8.3-16l-10.2-58.2
	c-1.4-8.5-9.2-14.3-17.7-13.4l0,0c-8.4,0.9-14.5,8.5-13.5,16.9c0,0.2,0,0.3,0.1,0.5c0.1,0.6,0.2,1.1,0.3,1.7l11.1,41.4L708.4,462.6z
	"/>
<path class="st2" d="M679.8,469.2L668,438.7c-0.8-2.2,0.2-4.6,2.4-5.5l6.6-2.6c2.2-0.8,4.6,0.2,5.5,2.4l11.8,30.5
	c0.8,2.2-0.2,4.6-2.4,5.5l-6.6,2.6C683.1,472.5,680.7,471.4,679.8,469.2z"/>
<path class="st6" d="M671.8,434.5c-1.2,0.5-1.8,1.8-1.3,2.9l11.8,30.5c0.5,1.2,1.8,1.8,2.9,1.3l6.6-2.6c1.2-0.5,1.8-1.8,1.3-2.9
	l-11.8-30.5c-0.5-1.2-1.8-1.8-2.9-1.3L671.8,434.5z"/>
<rect x="706.1" y="488" class="st7" width="44.9" height="44.9"/>
<polygon class="st5" points="599.6,620.2 582.5,614.5 573,661.2 584.6,665.1 "/>
<polygon class="st5" points="630.1,611.4 612.5,615.5 629,660.2 640.9,657.4 "/>
<path class="st8" d="M749.4,544.6c9,60-110.9,24.5-110.9,24.5L601,621l-22-4c0,0,9.9-31.1,27.6-72.8c7.9-18.5,97-14,97-14l1.9-14.5
	l51-1L749.4,544.6z"/>
<path class="st8" d="M634.8,556.3l-32.6,0.8c5.2,45,9.8,63,9.8,63l19-6L634.8,556.3z"/>
<path class="st4" d="M723.8,415l9-11.6l12.9-0.6l1.3,10.9l6.4,2.9c6.4,24.2,7.4,49.6,2.9,74.2l0,0l0,0c-1.7,1.6-2.5,4.1-1.9,6.4
	l0.4,1.7l0,0.1c-1.4,2.1-1.8,4.7-1.3,7.2l0,0l3.1,5.4c4.2,7.4,1.5,16.8-5.9,21c-0.7,0.4-1.5,0.8-2.3,1.1
	c-18.8,6.8-36.3,9.3-49.3-9.7l-4.1-66.5L723.8,415z"/>
<circle class="st7" cx="733.2" cy="382.7" r="23.8"/>
<path class="st8" d="M745.2,353.9c10.1,0.2,18.1,9.6,17.9,20.9c7.5,7.8,5,17.3-1.2,27.5c-11.4,1.3-14.1,1.9-24.1,6l-1.3-6.2l-3,8
	c-2.5,1.2-5.1,2.5-7.6,3.9c-1.8-8.3-1.4-16.3,3.5-23.3c4.3-6.2-6.2-13.6-13.6-12.5l0,0l0.1-5.7l-1.9,5.7c-2.9,2.1-6.1,1.4-9.5-0.2v0
	C699.1,350.1,740.7,342.5,745.2,353.9z"/>
<path class="st8" d="M589.9,673l-7.6-1l-0.4-7.4l-4.4,6.8l-20.3-2.6c-2.5-0.3-4.3-2.6-4-5.1c0.2-1.5,1.1-2.8,2.5-3.5l17.6-9.1l1-7.3
	l16.9,3.2L589.9,673z"/>
<path class="st8" d="M645.3,668.7l-7.6,1l-2.3-7l-2.6,7.7l-20.3,2.6c-2.5,0.3-4.8-1.5-5.1-4c-0.2-1.5,0.4-3,1.5-4l14.7-13.3
	l-0.9-7.3l17.2-1.2L645.3,668.7z"/>
<path class="st5" d="M680.3,444.2c5.9,0.4,10.4,5.4,10.1,11.2c0,0.6-0.1,1.1-0.2,1.7l32,20.2l-17.7,7.8l-27.7-20.4
	c-4.7-1.4-7.8-5.9-7.7-10.8c0.3-5.7,5.1-10.1,10.8-9.8h0C680.2,444.2,680.3,444.2,680.3,444.2z"/>
<path class="st4" d="M711.2,468.2l-7.9,16.4l31.4,20.2c4.5,2.9,10.3,3.3,15.2,1l0,0c6-2.9,9.4-9.4,8.3-16L748,431.7
	c-1.4-8.5-9.2-14.3-17.7-13.4l0,0c-8.4,0.9-14.5,8.5-13.5,16.9c0,0.2,0,0.3,0.1,0.5c0.1,0.6,0.2,1.1,0.3,1.7l11.1,41.4L711.2,468.2z
	"/>
<polygon class="st3" points="110.4,465 120.5,469.6 142.8,432.9 127.9,426.2 "/>
<path class="st8" d="M105.3,475.4l31,14l0.2-0.4c3-6.7,0-14.5-6.6-17.5l0,0l-3.7-6.8l-12.5-0.5l-2.7-1.2L105.3,475.4z"/>
<polygon class="st3" points="235.2,415.1 245.8,412.1 239.3,369.7 223.6,374.1 "/>
<path class="st8" d="M237.9,426.3l32.7-9.2l-0.1-0.4c-2-7-9.3-11.1-16.3-9.2l0,0l-7.2-2.9l-9.9,7.7l-2.9,0.8L237.9,426.3z"/>
<path class="st8" d="M74.2,291.1c0.3,7.9,17,29.1,25.8,32.1c1.5,0.5,2.4,0.8,2.4,0.8l3.1-0.9l37.1-11.2c6.5,3.8,25.9,5.8,41.8,6.7
	c12.7,0.8,19.7,7.4,19.7,7.4c3.7,28.4,14.5,49.1,26.9,74.5l14.9-2.6l-14.1-94.8c-0.6-4.2-3.7-7.6-7.8-8.7L122.7,268
	c0,0-5.6-1-17.4,4.7C86,282.1,74,285.4,74.2,291.1z"/>
<path class="st8" d="M93.5,289.6c-3.4,7.1,1.6,33.7,8,40.4l1.7,1.2l0.6,0.3c3.8,13,45,51,45,51c-13.9,17.7-26.3,39.4-31.9,63.6
	l16.1,5.9l45.3-67.6c2.4-3.6,2.4-8.4-0.1-11.9L159.8,346l-30.1-58.3C108.2,287,96,284.4,93.5,289.6z"/>
<path class="st4" d="M74.8,294.2c0,0-1.2-3.1-1.3-3.1c-0.4-0.1-5.8-0.6-4.6-9.6l1.6-9.9l-1.5-8.7l-2.6-2.6l4.1-4.1L68,237.4L67,200
	c-2.4-12.9-1.8-24.6,10-30.3l13.5-12.5l15.4-0.2l17.5,10.3l8.5,16.9l3.3,45.7l2.4,5.7l-0.2,0.2c0,0-1.6,1.5-2.4,2.3
	c-0.4,0.5,0.3,4.3,1.1,7.5l1.1,7.9l-2.7,1.9l3.5,4.1l9.4,15.9l-0.6-0.1c-0.6-0.2-6.6,8.7-71.6,18.6
	C74.9,293.9,74.9,294.2,74.8,294.2z"/>
<path class="st2" d="M149.2,195.3l-5.4-2.8c-1.8-0.9-2.4-3.1-1.5-4.9l12.9-24.7c0.9-1.8,3.1-2.4,4.9-1.5l5.4,2.8
	c1.8,0.9,2.4,3.1,1.5,4.9l-12.9,24.7C153.2,195.5,151,196.2,149.2,195.3z"/>
<path class="st6" d="M158.8,162.3c-0.9-0.5-2.1-0.1-2.6,0.8l-12.9,24.7c-0.5,0.9-0.1,2.1,0.8,2.6l5.4,2.8c0.9,0.5,2.1,0.1,2.6-0.8
	l12.9-24.7c0.5-0.9,0.1-2.1-0.8-2.6L158.8,162.3z"/>
<circle class="st3" cx="101.7" cy="131.6" r="22"/>
<path class="st8" d="M90.9,145.8c-1-0.8-2.2-1.2-3.4-1.1c-0.8,0.1-1.5,0.6-1.9,1.2c-0.2,0.3-0.6,0.4-1,0.4
	c-2.3,0.1-7.3-4.3-7.7-12.7c-0.2-4-2.6-10.7,1.3-14.4c0.3-1.5,3.2-16.7,16.6-17.2c13.7-0.4,22.8,2.3,25,7.5l0,0
	c1.5,4.1,2.7,8.4,3.5,12.8l0.5,2.6l-1.1-2.4c0,0-2-4.3-5.6-5.8c-0.1,0.7-0.2,1.4-0.5,2c-1.2,2.6-4.2,4.2-7.6,4.3
	c-2.4-0.1-4.7-0.6-6.9-1.5c0.7,1,0.5,2.4-0.6,3.1c-0.5,0.3-1,0.5-1.6,0.4l-0.6-0.1c-0.5-0.1-0.9,0.3-1,0.8c0,0.4,0.1,0.7,0.5,0.9
	l0.6,0.3l-0.7,0.3c-5.6,2.5-8.8,8.5-7.8,14.6l0.8,4.5L90.9,145.8z"/>
<path class="st6" d="M439.1,485.7c-1.6,0.1-3-1.2-3.1-2.8c0-0.9,0.3-1.7,0.9-2.3l0.2-0.8c0-0.1-0.1-0.1-0.1-0.2
	c-1.7-4-6.3-5.9-10.3-4.2c-1.9,0.8-3.4,2.3-4.2,4.2c-2.4,5.7-5.4,11.5-6.2,17.5c-0.3,2.7-0.2,5.4,0.4,8c-5.6-12.2-8.5-25.4-8.5-38.9
	c0-3.4,0.2-6.7,0.6-10.1c0.3-2.7,0.7-5.5,1.3-8.2c3-14.7,9.4-28.4,18.8-40.1c4.5-2.5,8.2-6.3,10.5-10.9c0.8-1.7,1.4-3.4,1.7-5.2
	c-0.5,0.1-1,0.1-1.5,0.1c-0.2,0-0.3,0-0.5,0l-0.1,0c-1.6,0.1-3-1.2-3-2.8c0-0.7,0.2-1.4,0.6-2c0.2-0.3,0.4-0.5,0.7-0.8
	c0.3-0.4,0.7-0.8,1-1.2c0,0,0.1-0.1,0.1-0.1c0.4-0.5,0.8-0.9,1.2-1.4c-0.7-1.1-1.6-2-2.8-2.7c-3.9-2.3-9.2-0.7-12,2.8
	c-2.8,3.5-3.3,8.4-2.3,12.7c1,3.7,2.5,7.2,4.7,10.4c-0.2,0.3-0.4,0.5-0.6,0.8c-3.8,4.9-7.1,10.2-9.9,15.7c0.7-6.2-0.1-12.5-2.4-18.4
	c-2.3-5.5-6.5-10.1-10.2-14.8c-4.5-5.7-13.7-3.2-14.5,4c0,0.1,0,0.1,0,0.2c0.6,0.3,1.1,0.6,1.6,1c1.8,1.2,2.3,3.7,1.1,5.5
	c-0.6,0.9-1.6,1.6-2.7,1.7l-0.1,0c0.2,2,0.5,4,1,5.9c2.9,11,10.3,20.3,20.3,25.6c0.3,0.2,0.6,0.3,1,0.5c-2.8,7.9-4.6,16.2-5.2,24.6
	c-0.4,5-0.4,9.9,0.1,14.9l0-0.2c-1.1-5.5-4-10.5-8.3-14.1c-6.4-5.3-15.4-7.2-22.3-11.4c-2.1-1.4-5-0.7-6.3,1.4
	c-0.6,0.9-0.8,2-0.7,3.1c0,0.1,0,0.1,0,0.2c1,0.4,2,0.9,3,1.4c0.6,0.3,1.1,0.6,1.6,1c1.8,1.2,2.3,3.7,1.1,5.5
	c-0.6,0.9-1.6,1.6-2.7,1.7l-0.1,0c-0.1,0-0.1,0-0.2,0c1.8,4.2,4.2,8.1,7.3,11.4c7.7,8.2,18.4,12.9,29.6,13h0
	c1.5,6.6,3.7,12.9,6.5,19.1h23.3c0.1-0.3,0.2-0.5,0.2-0.8c-2.2,0.1-4.3,0-6.5-0.4c1.7-2.1,3.5-4.3,5.2-6.4c0,0,0.1-0.1,0.1-0.1
	c0.9-1.1,1.8-2.2,2.6-3.3l0,0C440.3,492.2,439.9,488.9,439.1,485.7L439.1,485.7z"/>
<path class="st6" d="M551.2,124.1c1.2,1.1,1.3,2.9,0.2,4.1c-0.6,0.6-1.4,1-2.3,1l-0.7,0.4c0,0.1-0.1,0.1-0.1,0.2
	c-1.6,4.1,0.4,8.6,4.5,10.2c1.9,0.8,4.1,0.7,6-0.1c5.7-2.4,11.9-4.4,16.6-8.3c2.1-1.7,3.9-3.7,5.3-6c-4.5,12.6-11.7,24.1-21,33.8
	c-2.3,2.4-4.8,4.7-7.4,6.8c-2.1,1.7-4.3,3.4-6.6,4.9c-12.4,8.4-26.6,13.8-41.4,15.6c-5-1.4-10.2-1.2-15.1,0.5
	c-1.8,0.6-3.4,1.5-4.9,2.5c0.4,0.3,0.8,0.6,1.2,1c0.1,0.1,0.2,0.2,0.4,0.3l0,0c1.2,1.1,1.3,2.9,0.2,4.1c-0.5,0.5-1.1,0.9-1.8,1
	c-0.3,0-0.7,0.1-1,0.1c-0.5,0.1-1.1,0.1-1.6,0.2c-0.1,0-0.1,0-0.2,0c-0.6,0.1-1.2,0.1-1.8,0.2c-0.3,1.3-0.2,2.6,0.1,3.8
	c1.2,4.3,6.1,6.9,10.5,6.3c4.4-0.5,8.2-3.7,10.6-7.5c1.9-3.3,3.2-6.9,3.9-10.7c0.3,0,0.7-0.1,1-0.1c6.2-0.9,12.2-2.3,18.1-4.3
	c-4.8,4-8.7,9.1-11.1,14.8c-2.2,5.5-2.4,11.7-3,17.7c-0.7,7.2,7.6,11.8,13.2,7.2c0.1,0,0.1-0.1,0.2-0.1c-0.2-0.6-0.3-1.2-0.5-1.9
	c-0.5-2.2,0.9-4.3,3.1-4.7c1.1-0.2,2.2,0,3.1,0.7l0.1,0c1.3-1.6,2.4-3.2,3.4-5c5.6-9.9,6.8-21.7,3.3-32.5c-0.1-0.3-0.2-0.7-0.4-1
	c7.6-3.7,14.6-8.4,20.9-14c3.7-3.3,7.2-6.9,10.3-10.7l-0.1,0.1c-3.1,4.7-4.4,10.3-3.9,15.9c0.9,8.2,6,15.9,8,23.8
	c0.6,2.5,3,4,5.5,3.4c1.1-0.2,2-0.9,2.6-1.7c0-0.1,0.1-0.1,0.1-0.2c-0.4-1-0.8-2.1-1.1-3.1c-0.2-0.6-0.3-1.2-0.5-1.9
	c-0.5-2.2,0.9-4.3,3.1-4.7c1.1-0.2,2.2,0,3.1,0.7l0.1,0c0,0,0.1,0.1,0.1,0.1c1.7-4.2,2.6-8.7,2.7-13.3c0.3-11.2-4.1-22.1-12.1-30
	l0,0c3.5-5.8,6.4-11.9,8.6-18.2l-16.7-16.3c-0.2,0.1-0.5,0.3-0.7,0.4c1.6,1.4,3.1,3,4.4,4.8c-2.7,0.3-5.5,0.6-8.2,1
	c-0.1,0-0.1,0-0.2,0c-1.4,0.2-2.8,0.3-4.2,0.5l0,0C554.9,118.5,552.9,121.2,551.2,124.1L551.2,124.1z"/>
<path class="st3" d="M149.2,189.3l-21,23.9l11.9,11.5c0,0,17.3-28.4,17.9-29.5c4.3-0.6,7.4-4.6,6.7-9c-0.6-4.3-4.6-7.4-9-6.7
	c-4.3,0.6-7.4,4.6-6.7,9C149,188.8,149.1,189.1,149.2,189.3z"/>
<path class="st4" d="M75.7,174.8c0.4,24.9,19.4,45.5,33.7,68c8.4,5.5,19.7,3.2,25.2-5.2c0.3-0.5,0.6-1,0.9-1.4l12.6-23.2l-16-4.5
	l-8.5,5.6l-17.7-20.8L75.7,174.8z"/>
</svg>
