<?xml version="1.0" encoding="utf-8"?>
<!-- Generator: Adobe Illustrator 27.0.0, SVG Export Plug-In . SVG Version: 6.00 Build 0)  -->
<svg version="1.1" id="Layer_1" xmlns="http://www.w3.org/2000/svg" xmlns:xlink="http://www.w3.org/1999/xlink" x="0px" y="0px"
	 viewBox="0 0 1021.2 798.8" style="enable-background:new 0 0 1021.2 798.8;" xml:space="preserve">
<style type="text/css">
	.st0{fill:#3F3D56;}
	.st1{fill:#2F2E41;}
	.st2{opacity:0.71;fill:#F8921D;}
	.st3{fill:#96CA55;}
	.st4{fill:#D0CDE1;}
	.st5{fill:#F2F2F2;}
	.st6{opacity:0.1;enable-background:new    ;}
	.st7{fill:#A0616A;}
	.st8{fill:#F8DC51;}
	.st9{fill:#E6E8EC;}
	.st10{fill:#FFB8B8;}
</style>
<path class="st0" d="M125.4,660.9c-1.4-2-2.7-4.1-4-6.2l2.1-1.3c1.3,2,2.6,4.1,3.9,6.1L125.4,660.9z"/>
<path class="st0" d="M114.1,641.7c-2.3-4.4-4.4-9-6.2-13.6l2.3-0.9c1.9,4.5,3.9,9,6.1,13.4L114.1,641.7z M102.7,614
	c-1.5-4.7-2.8-9.6-3.9-14.4l2.4-0.5c1.1,4.8,2.4,9.6,3.8,14.2L102.7,614z M96.2,584.9C95.5,580,95,575,94.7,570l2.4-0.1
	c0.3,4.9,0.8,9.8,1.4,14.7L96.2,584.9z M96.9,555.1l-2.4-0.1c0.1-5,0.4-10,1-14.9l2.4,0.3C97.3,545.3,97,550.2,96.9,555.1
	L96.9,555.1z M100,525.8l-2.4-0.5c0.9-4.9,2.1-9.8,3.4-14.6l2.3,0.6C102,516.2,100.9,521,100,525.8L100,525.8z M107.8,497.4
	l-2.3-0.8c1.7-4.7,3.7-9.3,5.8-13.8l2.2,1C111.4,488.2,109.5,492.8,107.8,497.4L107.8,497.4z M441,489.9c-1.9-4.5-4-9-6.3-13.3
	l2.2-1.1c2.3,4.4,4.4,9,6.4,13.5L441,489.9z M120.3,470.7l-2.1-1.2c2.5-4.3,5.1-8.6,8-12.7l2,1.4
	C125.4,462.2,122.7,466.4,120.3,470.7z M427.3,463.8c-2.6-4.1-5.4-8.2-8.4-12.1l1.9-1.5c3,4,5.9,8.1,8.5,12.3L427.3,463.8z
	 M137,446.4l-1.9-1.5c3.1-3.9,6.5-7.6,9.9-11.2l1.8,1.7C143.4,438.8,140.1,442.6,137,446.4z M409.5,440.2
	c-3.3-3.7-6.7-7.2-10.3-10.6l1.7-1.8c3.6,3.4,7.1,7,10.4,10.7L409.5,440.2z M157.4,425.1l-1.6-1.8c3.7-3.3,7.6-6.5,11.6-9.4l1.5,1.9
	C165,418.7,161.1,421.9,157.4,425.1z M388.2,419.9c-3.8-3.1-7.8-6-11.9-8.8l1.4-2c4.1,2.8,8.2,5.8,12,8.9L388.2,419.9z M181.1,407.5
	l-1.3-2.1c4.2-2.6,8.6-5.1,13-7.4l1.1,2.2C189.5,402.4,185.2,404.9,181.1,407.5L181.1,407.5z M363.8,403.4
	c-4.3-2.4-8.7-4.7-13.1-6.7l1-2.2c4.5,2.1,9,4.4,13.3,6.8L363.8,403.4z M207.2,394l-0.9-2.2c4.6-1.9,9.3-3.6,14-5.2l0.7,2.3
	C216.4,390.4,211.8,392.1,207.2,394L207.2,394z M337,391c-4.6-1.7-9.3-3.2-14.1-4.5l0.6-2.3c4.8,1.3,9.6,2.8,14.3,4.5L337,391z
	 M235.3,385l-0.5-2.4c4.8-1.1,9.8-2.1,14.7-2.8l0.4,2.4C244.9,382.9,240.1,383.9,235.3,385L235.3,385z M308.5,383.3
	c-4.8-0.9-9.7-1.6-14.6-2.1l0.2-2.4c4.9,0.5,9.9,1.2,14.8,2.1L308.5,383.3z M264.5,380.7l-0.2-2.4c4.9-0.3,10-0.4,14.9-0.3l0,2.4
	C274.3,380.3,269.3,380.4,264.5,380.7L264.5,380.7z"/>
<path class="st0" d="M448.3,510.8c-0.7-2.3-1.4-4.6-2.1-6.9l2.3-0.8c0.8,2.3,1.5,4.7,2.1,7L448.3,510.8z"/>
<path class="st0" d="M494.3,433h-2.4c0-2.4,0-4.9,0.1-7.3l2.4,0.1C494.3,428.1,494.3,430.6,494.3,433z"/>
<path class="st0" d="M495.4,411.1l-2.4-0.3c0.5-4.9,1.2-9.8,2.1-14.7l2.4,0.4C496.6,401.4,495.9,406.2,495.4,411.1z M500.6,382.3
	l-2.4-0.6c1.2-4.8,2.6-9.6,4.2-14.2l2.3,0.8C503.2,372.8,501.8,377.5,500.6,382.3L500.6,382.3z M888.5,356.6c-1.8-4.5-3.8-9-6-13.4
	l2.2-1.1c2.2,4.4,4.2,9,6,13.5L888.5,356.6z M509.9,354.5l-2.2-0.9c1.9-4.5,4-9.1,6.2-13.5l2.2,1.1
	C513.8,345.5,511.7,350,509.9,354.5L509.9,354.5z M875.7,330.3c-2.4-4.2-5.1-8.4-7.8-12.4l2-1.4c2.8,4.1,5.4,8.3,7.9,12.5
	L875.7,330.3z M523.1,328.3L521,327c2.5-4.2,5.2-8.4,8.1-12.5l2,1.4C528.2,320,525.5,324.1,523.1,328.3L523.1,328.3z M859.2,306.1
	c-3-3.8-6.2-7.6-9.5-11.2l1.8-1.6c3.3,3.6,6.6,7.4,9.6,11.3L859.2,306.1z M539.8,304.3l-1.9-1.5c3.1-3.8,6.4-7.6,9.7-11.2l1.8,1.7
	C546.1,296.8,542.9,300.5,539.8,304.3L539.8,304.3z M839.4,284.5c-3.5-3.3-7.2-6.6-11-9.7l1.5-1.9c3.8,3.1,7.5,6.4,11.1,9.8
	L839.4,284.5z M559.9,282.9l-1.7-1.8c3.6-3.3,7.4-6.6,11.2-9.7l1.5,1.9C567.2,276.4,563.4,279.6,559.9,282.9L559.9,282.9z
	 M816.7,265.9c-4-2.8-8.1-5.5-12.3-8l1.3-2.1c4.2,2.5,8.4,5.3,12.4,8.1L816.7,265.9z M582.7,264.6l-1.4-2c4-2.8,8.3-5.5,12.5-8
	l1.2,2.1C590.9,259.2,586.7,261.8,582.7,264.6z M791.7,250.7c-4.3-2.2-8.8-4.3-13.3-6.2l0.9-2.2c4.5,1.9,9.1,4,13.4,6.3L791.7,250.7
	z M607.9,249.7l-1.1-2.2c4.4-2.2,8.9-4.2,13.5-6.1l0.9,2.3C616.8,245.5,612.3,247.5,607.9,249.7z M764.7,239.3
	c-4.6-1.6-9.3-3-14-4.2l0.6-2.4c4.8,1.2,9.6,2.7,14.2,4.3L764.7,239.3z M635,238.6l-0.8-2.3c4.7-1.5,9.5-2.9,14.2-4.1l0.6,2.4
	C644.4,235.7,639.6,237.1,635,238.6z M736.3,231.9c-4.8-0.9-9.7-1.6-14.5-2.2l0.3-2.4c4.9,0.5,9.8,1.3,14.7,2.2L736.3,231.9z
	 M663.4,231.5l-0.4-2.4c4.8-0.8,9.8-1.5,14.7-2l0.2,2.4C673.1,230,668.2,230.7,663.4,231.5L663.4,231.5z M707.2,228.6
	c-4.9-0.2-9.8-0.2-14.7-0.1l-0.1-2.4c4.9-0.1,9.9-0.1,14.8,0.1L707.2,228.6z"/>
<path class="st0" d="M895.6,377.5c-0.7-2.3-1.4-4.7-2.1-6.9l2.3-0.7c0.7,2.3,1.5,4.7,2.1,7L895.6,377.5z"/>
<polygon class="st1" points="388,487.5 638.1,628.5 342.8,798.8 95.4,652.4 "/>
<polygon class="st1" points="771.1,277.3 1021.2,418.3 725.9,588.6 478.5,442.3 "/>
<polygon class="st2" points="388,474.2 638.1,615.2 342.8,785.5 95.4,639.1 "/>
<polygon class="st2" points="771.1,264 1021.2,405 725.9,575.3 478.5,429 "/>
<path class="st3" d="M829.2,224.3c28.2-31.6,25.4-80.1-6.3-108.3c-7-6.2-15-11.1-23.8-14.4c26-15.1,34.9-48.4,19.9-74.4
	S770.7-7.8,744.7,7.3s-34.9,48.4-19.9,74.4c4.8,8.2,11.6,15.1,19.9,19.9c-39.6,15.1-59.5,59.4-44.5,99c3.3,8.7,8.1,16.7,14.3,23.6
	c-49.6,31.6-64.1,97.4-32.5,147c31.6,49.6,97.4,64.1,147,32.5c49.6-31.6,64.1-97.4,32.5-147C853.2,243.6,842.2,232.6,829.2,224.3z"
	/>
<path class="st4" d="M453.2,467.4c0,56.1-33.4,75.7-74.5,75.7c-1,0-1.9,0-2.9,0c-1.9,0-3.8-0.1-5.7-0.3c-37.1-2.6-66-23.2-66-75.4
	c0-54,69-122.2,74.2-127.2c0,0,0,0,0,0c0,0,0,0,0,0c0.2-0.2,0.3-0.3,0.3-0.3S453.2,411.3,453.2,467.4z"/>
<path class="st0" d="M376,534.5l27.3-38.1l-27.3,42.3l-0.1,4.4c-1.9,0-3.8-0.1-5.7-0.3l2.9-56.1l0-0.4l0-0.1l0.3-5.3L346,438.5
	l27.5,38.4l0.1,1.1l2.2-42.4l-23.5-43.8l23.7,36.3l2.3-88l0-0.3v0.3l-0.4,69.4l23.3-27.5l-23.4,33.5l-0.6,38l21.8-36.5l-21.9,42
	l-0.3,21.1l31.6-50.7l-31.8,58.1L376,534.5z"/>
<path class="st4" d="M224.5,568.5c0,56.1-33.4,75.7-74.5,75.7c-1,0-1.9,0-2.9,0c-1.9,0-3.8-0.1-5.7-0.3c-37.1-2.6-66-23.2-66-75.4
	c0-54,69-122.2,74.2-127.2c0,0,0,0,0,0c0,0,0,0,0,0c0.2-0.2,0.3-0.3,0.3-0.3S224.5,512.3,224.5,568.5z"/>
<path class="st0" d="M147.2,635.6l27.3-38.1l-27.3,42.3l-0.1,4.4c-1.9,0-3.8-0.1-5.7-0.3l2.9-56.1l0-0.4l0-0.1l0.3-5.3l-27.4-42.4
	l27.5,38.4l0.1,1.1l2.2-42.4l-23.5-43.8l23.7,36.3l2.3-88l0-0.3v0.3l-0.4,69.4l23.3-27.5l-23.4,33.5l-0.6,38l21.8-36.5l-21.9,42
	l-0.3,21.1l31.6-50.7L148,588.6L147.2,635.6z"/>
<path class="st5" d="M595.5,396.6c-21,0-37.9,17-37.9,37.9s17,37.9,37.9,37.9c21,0,37.9-17,37.9-37.9c0,0,0,0,0,0
	C633.4,413.6,616.4,396.6,595.5,396.6z M597.8,437.8c-4.1,0-7.4-3.3-7.4-7.4s3.3-7.4,7.4-7.4s7.4,3.3,7.4,7.4l0,0
	C605.2,434.5,601.9,437.8,597.8,437.8C597.8,437.8,597.8,437.8,597.8,437.8L597.8,437.8z"/>
<path class="st1" d="M635.7,369.7c-0.8,0.9-16.2,15.6-16.2,15.6s1.5,10.2,18,11.5l27.5,2.1c0,0,5.2,19,11.4,25.1
	c6.2,6.1,3.3,6.4,5.7,9.4s-0.9,3.8,2.6,4.1c3.5,0.3,10.8-4,10.9-7.3c0-2.3-1.1-4.5-2.9-6c-0.9-0.8-3.2-8.8-4.6-10.5
	c-1.4-1.7-6.6-22.1-6.6-22.1s-5.2-9.8-12.5-10.6s-15.3-4.3-15.3-4.3"/>
<path class="st6" d="M635.7,369.7c-0.8,0.9-16.2,15.6-16.2,15.6s1.5,10.2,18,11.5l27.5,2.1c0,0,5.2,19,11.4,25.1
	c6.2,6.1,3.3,6.4,5.7,9.4s-0.9,3.8,2.6,4.1c3.5,0.3,10.8-4,10.9-7.3c0-2.3-1.1-4.5-2.9-6c-0.9-0.8-3.2-8.8-4.6-10.5
	c-1.4-1.7-6.6-22.1-6.6-22.1s-5.2-9.8-12.5-10.6s-15.3-4.3-15.3-4.3"/>
<path class="st7" d="M662.4,310.6c0,0,5.8-15.7,9.7-10.7c4,5-6.4,13.2-6.4,13.2L662.4,310.6z"/>
<path class="st8" d="M631.9,318.8l3.3-1.4c0,0,6,6.3,8.3,7.4c2.4,1.2,8.9,4,9.7,4.5s10.6-16.8,8.3-19.3c0,0,4.4,1.6,6.4,1
	c0,0-5,24.1-5.7,27.3c-0.8,3.3-2.5,3.6-5.8,3.8c-3.3,0.1-23.2-5.7-23.2-5.7L631.9,318.8z"/>
<path class="st1" d="M682.7,435.4c0,0,1,3.3,0.6,3.8c-0.5,0.5-1.8,9.4,3.7,8.9c5.5-0.6,8.1-2.3,9.5-2.2c1.4,0.1,21.9-7,20.8-10.3
	c-1-3.3-11.3,0.3-11.3,0.3s-11.6-2.2-14.4-4.8S682.7,435.4,682.7,435.4z"/>
<path class="st6" d="M682.7,435.4c0,0,1,3.3,0.6,3.8c-0.5,0.5-1.8,9.4,3.7,8.9c5.5-0.6,8.1-2.3,9.5-2.2c1.4,0.1,21.9-7,20.8-10.3
	c-1-3.3-11.3,0.3-11.3,0.3s-11.6-2.2-14.4-4.8S682.7,435.4,682.7,435.4z"/>
<path class="st1" d="M672.2,440.2c0,0,3.3,14.3,5.7,14.2c2.4-0.1,19.4-8.4,21.5-10.1c2.7-2.1,2.6-5.8-0.5-5
	c-3.1,0.8-11.8,0.1-13.3-1.5l-3.8-4.1L672.2,440.2z"/>
<path class="st1" d="M638.5,360.6c-0.9,0.8-28.3,24.1-28.3,24.1s2.2,15,18.6,17.5c16.3,2.5,25.8-0.6,25.8-0.6s3.8,19.4,9.5,25.9
	c5.7,6.5,2.9,6.7,5,9.8s-1.2,3.7,2.3,4.2s11-3.2,11.4-6.4c0.2-2.3-0.7-4.6-2.4-6.2c-0.8-0.9-2.6-9.1-3.8-10.8s-5-22.5-5-22.5
	s-4.5-10.2-11.7-11.5c-7.2-1.3-15-5.4-15-5.4"/>
<circle class="st7" cx="613.3" cy="297.2" r="13"/>
<path class="st7" d="M606.5,305.3c0,0,1.9,7.9-1,12s19.9,2.1,19.9,2.1s-6.2-12.9-3.9-15.9S606.5,305.3,606.5,305.3z"/>
<path class="st8" d="M635.7,317.8c2.8,2.9,1.8,19.5,1.8,19.5l-1.8,14.8c0,0,2.1,2.7,1.4,3.8s-1.8,2.1,0.4,2.6
	c2.2,0.5,7.2,1.3,5.6,3.7c-0.5,0.7-1.1,1.3-1.7,1.9c-0.5,0.5-1.1,1.2-1.8,1.9c-1.6,1.6-3.7,3.6-5.9,5.7c-0.6,0.6-1.3,1.2-2,1.8
	c-8.7,7.8-19.5,16.2-21.7,12.2c-3.7-6.7-6.3-7.6-6.2-13.3s-4.6-20.3-4.6-20.3s-5.6-24.9,2.3-32.3l1.2-2c1.2-1.9,3.4-2.8,5.6-2.3
	c3.8,0.9,9.7,2.2,12.3,2c3.9-0.3,3.1-1.9,3.1-1.9S632.9,314.9,635.7,317.8z"/>
<path class="st7" d="M647.8,370.9c0,0,16.1,4,13.7,9.6s-16.3-4.7-16.3-4.7L647.8,370.9z"/>
<path class="st1" d="M606.1,302c0.3-0.4,0-1-0.3-1.4c-1.5-2.2-1.8-5.4-0.1-7.6c0.6-0.8,1.5-1.4,2.4-1.9c1.3-0.7,2.7-1.1,4.1-1.3
	c0.8,0,1.5-0.2,2.3-0.4c0.5-0.2,2.6-1,3.1-1.2c1-0.5,2.4-0.3,3.1-1.2c0.6-0.9,0-2.1-0.6-3c-1.4-2-4.8-3.7-7.2-4.2
	c-1.8-0.3-3.7,0.1-5.4,1c-1.9,1-3.8,2.1-5.5,3.4c-2.4,1.6-4.5,3.7-6,6.2c-1.4,2.5-1.7,5.9-0.2,8.3c0.3,0.5,0.7,1,1,1.5
	c0.8,1.3,0.9,2.8,1.4,4.2c0.8,2,2.4,3.6,4.5,4.4c1.6,0.6,3.6,0.8,4.6,2.2l0.4-3c0.2-0.8-0.1-1.6-0.8-2l-2.3-1.9
	c-0.5-0.3-0.8-0.8-1-1.3C603.2,300.7,605.6,302.6,606.1,302z"/>
<path class="st6" d="M629.2,359.2l10.4,6.8c-2.1,2.1-4.9,4.8-7.9,7.6c-2.9-1.6-5.8-3.2-8.5-4.9c-9.7-6.2-17.9-21.8-21.7-29.3
	c-3.7-7.6-0.7-13.4-0.7-13.4c2.5-1.1,5.1-1.8,7.7-2.2C613.4,323,629.2,359.2,629.2,359.2z"/>
<path class="st6" d="M630.5,357l10.9,7.1c-0.5,0.5-1.1,1.2-1.8,1.9c-1.6,1.6-3.7,3.6-5.9,5.7c-3.1-1.6-6.3-3.5-9.1-5.3
	c-9.7-6.2-17.9-21.8-21.7-29.3c-3.7-7.6,6.3-4.8,6.3-4.8s-5.2-2.3-0.3-3.1C613.7,328.5,630.5,357,630.5,357z"/>
<path class="st8" d="M601.3,324.6c0,0-3,5.8,0.7,13.4s12,23.1,21.7,29.3c9.7,6.2,23.5,12.3,23.5,12.3s1.3-7.2,3.5-8l-21-13.8
	c0,0-15.8-36.2-20.6-35.4C606.4,322.8,603.8,323.5,601.3,324.6z"/>
<path class="st0" d="M597.8,473c-23.5,0-42.6-19.1-42.6-42.6s19.1-42.6,42.6-42.6c23.5,0,42.6,19.1,42.6,42.6
	C640.3,453.9,621.3,472.9,597.8,473z M597.8,388.7c-23,0-41.6,18.6-41.6,41.6c0,23,18.6,41.6,41.6,41.6c23,0,41.6-18.6,41.6-41.6
	C639.4,407.4,620.8,388.8,597.8,388.7L597.8,388.7z"/>
<path class="st0" d="M597.8,438.2c-4.3,0-7.9-3.5-7.9-7.9c0-4.3,3.5-7.9,7.9-7.9c4.3,0,7.9,3.5,7.9,7.9v0
	C605.7,434.7,602.1,438.2,597.8,438.2z M597.8,423.4c-3.8,0-6.9,3.1-6.9,6.9s3.1,6.9,6.9,6.9c3.8,0,6.9-3.1,6.9-6.9
	C604.7,426.5,601.6,423.4,597.8,423.4z"/>
<polygon class="st0" points="596.9,388.3 595.9,388.3 595.9,340.6 571.9,340.6 571.9,339.7 596.9,339.7 "/>
<rect x="631.3" y="403.5" class="st0" width="20.6" height="0.9"/>
<rect x="595.5" y="371.6" class="st0" width="47.2" height="0.9"/>
<polygon class="st0" points="676.2,458.3 651.5,404.2 652.4,403.8 676.7,457.1 699,447.1 699.3,447.9 "/>
<ellipse class="st0" cx="574.2" cy="340.1" rx="13" ry="1.9"/>
<path class="st0" d="M209,669.5c16.2-2.1,31.7-3.9,46.7-5.4l-5.7-9.6c2-0.6,10.6,5,10.6,5l-7.3-27.9c10,1.1,14.6,29.5,14.6,29.5
	l11.3-9.5l-5.6,10.7c45.7-4,85.1-5.2,118.3-4.9l-4.9-8.2c2-0.6,10.6,5,10.6,5l-7.3-27.9c10,1.1,14.6,29.5,14.6,29.5l11.3-9.5
	l-5.9,11.4c27.8,0.8,50.4,2.6,67.9,4.6c-4.9-12.8-22-25.1-22-25.1c13.2,3.4,20,9,23.6,14.2c0.7-26.5-4.1-52.9-14.2-77.4
	c0,0,26.6,50.1,22.6,83.6l-0.5,5.9c23.1,3,34.8,6.1,34.8,6.1L209,669.5z"/>
<path class="st7" d="M365.8,688.7l-1.7,19.2l-7.5,1.7l-1.7-5c0,0,2.9-13.8,2.9-16.3L365.8,688.7z"/>
<path class="st7" d="M344.9,675.3c0,0,3.3,8.4,4.6,9.2s-3.8,11.7-3.8,11.7l-7.5-1.3c0,0,2.5-8.8,0.4-13.8L344.9,675.3z"/>
<path class="st1" d="M347.2,680.1c0,0,3.1,1,4.4,5.6c0.5,1.6,0.9,3.3,1.3,5l-2.1,4.6h-1.3c0,0-2.1,7.1-1.7,9.6s-2.9,12.1-8.8,11.7
	s-4.6-7.5-4.6-7.5l2.9-14.6c0,0,0-3.8,0.8-3.8s7.5,1.3,7.5,1.3v1.3C345.7,693.3,350.5,686.8,347.2,680.1z"/>
<path class="st1" d="M357.8,705.8v-2.5c0,0,8.8,1.3,8.8,2.5v2.9c0,0,7.5,15.9-0.8,15.9s-10-3.3-10-3.3v-4.6c0,0-4.2-2.1-4.2-3.3
	s4.1-12.3,4.1-12.3S355.7,707.5,357.8,705.8z"/>
<circle class="st7" cx="367.9" cy="485.5" r="13.4"/>
<path class="st7" d="M373.1,495.8c0,0-1.7,7.9-1.7,8.8s-7.9,4.6-7.9,4.6l-7.1-1.3l-2.5-7.5c0,0,4.2-6.3,4.2-8.8L373.1,495.8z"/>
<path class="st8" d="M372,501.3c0,0-4.3,7-10.6,4.9c-3.6-1.1-6.1-4.3-6.1-8.1l-20.6,7.2l3.8,30.5l-3.3,35.5l2.5,4.6h36.8
	c0,0,1.3-6.3,1.7-6.3s1.3-1.3,0.8-1.7s-1.3-0.8-0.8-2.1s0.8-15,0.8-15l12.5-36.4L372,501.3z"/>
<path class="st7" d="M387.9,580.8l-7.5,10c0,0-1.3-10.5-2.9-10.9l4.2-2.9L387.9,580.8z"/>
<path class="st7" d="M304.3,572.9c0,0-11.3,7.1-10,11.7s14.2-7.9,14.2-8.4S304.3,572.9,304.3,572.9z"/>
<path class="st1" d="M374.6,572.9h0.8l1.3,5.9c4,3.9,5.3,9.8,3.3,15l-6.7,43.9l-0.8,51l-7.5,2.1l-8.4-1.7l-2.1-68.1
	c0,0-2.9-6.3-1.7-8.4s-0.4-1.7-0.4-1.7l-8.8,24.2c0,0,2.9,7.9,0,10.5c0,0,0.4,1.3,0,1.7s-2.5,2.1-1.7,2.9s1.3,0,1.3,1.3
	s4.2,11.7,2.5,25.1l-5.4,8.4l-5-2.9l-9.2-25.9c0,0,2.1-3.8,0-4.6s-2.5-1.7-1.7-2.9s0.8-5.4-0.4-7.5s0-5.4,0-5.4l4.6-42.2
	c0,0-2.1-11.3,5-17.1l1.3-4.6C334.8,571.6,345.3,579.2,374.6,572.9z"/>
<path class="st1" d="M379.5,474.7c0,0-4.2-9.2-12.4-7.1s-12.7,5.3-13.1,8.5c-0.2,2.7-0.1,5.3,0.2,8c0,0,0.9-6.5,6.5-5.1
	s14.5,0.4,14.5,0.4l1.4,12.7c0,0,1.6-2.3,3.4-0.9S385.1,477.6,379.5,474.7z"/>
<path class="st8" d="M383.1,514.6h6.3c3.6,3.5,5.4,8.4,5,13.4l2.9,24.7c0,0,0,12.1-5,20.9l-5.4,10.5c0,0-2.1-5.9-8.4-5l3.3-8.8v-2.1
	c0.5-0.6,0.9-1.3,1.3-2.1c0-0.4-1.7-0.4-0.4-1.3s2.5-9.2,2.5-9.2c-0.2-0.7-0.4-1.4-0.8-2.1c-0.4-0.4,0.4-1.7,0.4-1.7l-0.8-1.3
	l-5.4-20.5L383.1,514.6z"/>
<path class="st8" d="M341.7,504.1l-7.1,1.3c-2.5,2.6-4.5,5.8-5.9,9.2l-3.3,15l-5.4,10.9c0,0-6.3,6.3-10.9,20.5l-6.7,12.5l7.1,4.2
	c0,0,19.6-23,22.2-30.9l10.9-20.9L341.7,504.1z"/>
<path class="st0" d="M402.6,69.1c-8.1,0-14.6-6.5-14.6-14.6s6.5-14.6,14.6-14.6s14.6,6.5,14.6,14.6
	C417.1,62.6,410.6,69.1,402.6,69.1z M402.6,42.3c-6.7,0-12.2,5.4-12.2,12.2c0,6.7,5.4,12.2,12.2,12.2c6.7,0,12.2-5.4,12.2-12.2
	c0,0,0,0,0,0C414.7,47.8,409.3,42.3,402.6,42.3z"/>
<path class="st0" d="M519.1,217.8h-24v-24h24V217.8z M496.9,216h20.3v-20.3h-20.3V216z"/>
<path class="st0" d="M16.4,433.2L0,415.6l17.6-16.4l16.4,17.6L16.4,433.2z M2.6,415.7l13.9,14.9l14.9-13.9l-13.9-14.9L2.6,415.7z"/>
<path class="st0" d="M301.1,569.7l1.7,2.3c0,0,0,0.1,0,0.1l-0.1,0l9.1,11.9c0.5,0.7,0.4,1.7-0.3,2.2l-7.5,5.7
	c-0.7,0.5-1.7,0.4-2.2-0.3c0,0,0,0,0,0l-8.8-11.5l0,0c0,0-0.1,0-0.1,0l-1-1.3c0,0,0-0.1,0-0.1c0,0,0,0,0,0l0,0l-0.4-0.5l0,0
	c0,0-0.1,0-0.1,0l-1-1.3c0,0,0-0.1,0-0.1l0,0l-0.5-0.7l0,0c0,0-0.1,0-0.1,0c0,0,0,0,0,0l-0.5-0.7c0,0,0-0.1,0-0.1l0,0l-1.1-1.4
	c-0.5-0.7-0.4-1.7,0.3-2.2l7.5-5.7c0.7-0.5,1.7-0.4,2.2,0.3l2.5,3.3l0.1,0C301,569.7,301.1,569.7,301.1,569.7z"/>
<path class="st9" d="M292.1,570.2l1.2-0.9c0.1,0,0.2,0,0.2,0l0,0.1c0,0.1,0,0.2,0,0.2l-1.2,0.9c-0.1,0-0.2,0-0.2,0l0-0.1
	C292,570.4,292.1,570.3,292.1,570.2z"/>
<circle class="st9" cx="293.9" cy="569.1" r="0.2"/>
<path class="st3" d="M298,567.1l13.4,17.6c0.2,0.2,0.2,0.5,0.2,0.8c-0.1,0.2-0.2,0.4-0.4,0.6l-7.1,5.4c-0.1,0.1-0.3,0.2-0.4,0.2
	c0,0-0.1,0-0.1,0c-0.3,0-0.6-0.1-0.8-0.4l-13.4-17.6c-0.3-0.4-0.2-1.1,0.2-1.4c0,0,0,0,0,0l1.1-0.8l0.1,0.1c0.3,0.4,0.8,0.4,1.1,0.2
	c0,0,0,0,0,0l3.6-2.8c0.4-0.3,0.4-0.8,0.2-1.1c0,0,0,0,0,0l-0.1-0.1l1.1-0.9C297,566.6,297.6,566.7,298,567.1
	C298,567.1,298,567.1,298,567.1z"/>
<path class="st10" d="M855.1,268.7v15.2c0,0,1.2,17,7.9,25.5c0,0,10.9,15.5,12.5,12.2l-1.9-11l-6.3-6l-3.3-18.8l-0.9-17H855.1z"/>
<polygon class="st10" points="922.3,406.1 922.3,417.4 913.1,420.7 913.1,407.6 "/>
<polygon class="st10" points="903.7,404.9 909.8,418.6 901.3,422.2 899.5,408.9 "/>
<path class="st1" d="M918.9,300.1c0,0,12.2,109.7,7.6,110s-13.4,6.1-13.4,2.1s-7-55.3-7-55.3l-6.7-26.4v36.5l7,41.3
	c0,0-6.7,8.8-11.5,3.6l-10.3-40.4c0,0-13.7-61.4-13.1-66.3C871.5,305.2,902.8,278.5,918.9,300.1z"/>
<path class="st1" d="M916.5,418c0,0,2.4-5.2,7.9-1.8l4.6,5.5c0,0,11.8,9.7,3.4,11.8c-8.6,2.1-13.7-0.1-13.7-0.1
	c-0.8-0.5-1.8-0.8-2.7-0.9c-1.2,0-4-2.1-4-2.7s0.9-11.4,0.9-11.4c0.7-0.3,1.5-0.2,2.1,0.3C915.9,419.5,916.5,418,916.5,418z"/>
<path class="st1" d="M898.6,416.2c0,0,5.8-4.6,8.5,0.6c0,0,1.7,0.6,1.9,0s1.7-0.9,1.7,2.4s1.7,11.7,0.1,12c-1.5,0.3-3,1.2-2.7,2.4
	s-1.7,1.4-8.6,1.1s-7.3-3-7.3-3s0-4,1.8-6.1C895.8,423.5,898.6,416.2,898.6,416.2z"/>
<path class="st10" d="M887.3,217.1c0,0-1.5,11.2,8.2,15.2s-21.6,17-24.6,9.4c-3-7.6,0.6-10,0.6-10s3-3,0.3-11.2L887.3,217.1z"/>
<circle class="st10" cx="877.6" cy="211.6" r="13.4"/>
<path class="st5" d="M893.1,235.9c0,0-9.1,4.9-17.9,1.2c-8.8-3.6-8.5,12.2-8.5,12.2l4.6,11.9l31.6-3l-2.1-18.2L893.1,235.9z"/>
<path class="st8" d="M888.6,225.5c3.3,0.7,6.1,2.8,7.6,5.8l14.6,4.6l3.6,5.2l-4.3,37.4c0,0,7.9,7.6,7.9,11.9s9.7,18.8,4.9,17
	c-4.9-1.8-13.7-8.2-13.7-8.2s-22.2,0.9-29.2,7c-7,6.1-9.7,4.3-9.7,4.3s-7.3-31.6-7.6-36.5s-8.8-34-8.8-34l15.2-8.5l3.9-4.4
	l10.7,17.2l9.7-11.9C893.4,232.3,888.6,228.5,888.6,225.5z"/>
<path class="st10" d="M918.9,264.5l1.8,9.7c0,0,8.2,30.4,7,40.7c0,0,0.9,23.1-4.3,20.4s-2.4-19.5-2.4-19.5l-7.3-30.1l-4-17.6
	L918.9,264.5z"/>
<path class="st8" d="M911.3,239.3l3,1.8c0,0,11.5,24,8.8,25.8s-14.6,5.8-14.6,5.8L911.3,239.3z"/>
<polygon class="st8" points="861.2,239.9 854,239.7 852.4,242.6 854.5,272.1 865.4,274.5 "/>
<path class="st1" d="M888.5,200.3l2.4-0.9c0,0-5-5-12.1-4.6l2-2c0,0-4.8-1.8-9.2,2.8c-2.6,2.5-4.8,5.4-6.6,8.5h-2.6l1.1,2.2
	l-3.8,2.2l3.9-0.4c-0.4,1.9-0.2,3.8,0.4,5.6l0.9,2.4c0,0,3.5-7,3.5-7.9v2.2c0,0,2.4-2,2.4-3.3l1.3,1.5l0.7-2.4l8.1,2.4l-1.3-2l5,0.7
	l-2-2.4c0,0,5.7,2.8,5.9,5.3c0.3,1.9,0.9,3.8,1.7,5.6l1.8-2.1C892,213.6,894.8,203.6,888.5,200.3z"/>
<ellipse class="st10" cx="888.8" cy="211.8" rx="1.1" ry="2.7"/>
<path class="st0" d="M958.7,374.4c-15.8,11-20.8,31.1-20.8,31.1s20.6,2.3,36.3-8.7s20.8-31.1,20.8-31.1S974.5,363.4,958.7,374.4z"/>
<path class="st3" d="M965,380c-8,17.5-26.8,26-26.8,26s-5.9-19.8,2.1-37.3s26.8-26,26.8-26S973,362.5,965,380z"/>
<circle class="st5" cx="284.7" cy="546.1" r="3.6"/>
<circle class="st5" cx="268.9" cy="518.1" r="12.2"/>
<circle class="st3" cx="247" cy="462.2" r="23.1"/>
<path class="st3" d="M188.1,129.4c-45.8,7.1-77.2,50-70.1,95.8c0,0,0,0,0,0c7.1,45.8,113.6,184.1,113.6,184.1s59.4-164.1,52.3-209.9
	C276.9,153.6,234,122.3,188.1,129.4C188.1,129.4,188.1,129.4,188.1,129.4z M207.8,255.9c-24,3.7-46.6-12.7-50.3-36.8
	c-3.7-24,12.7-46.6,36.8-50.3c24-3.7,46.6,12.7,50.3,36.8C248.3,229.6,231.9,252.1,207.8,255.9L207.8,255.9z"/>
</svg>
